<?xml version="1.0" encoding="UTF-8"?>
<svg width="65px" height="65px" viewBox="0 0 65 65" version="1.1" xmlns="http://www.w3.org/2000/svg" xmlns:xlink="http://www.w3.org/1999/xlink">
    <title>Group 8</title>
    <g id="Designs" stroke="none" stroke-width="1" fill="none" fill-rule="evenodd">
        <g id="Desktop" transform="translate(-165.000000, -1354.000000)">
            <g id="Group-8" transform="translate(165.000000, 1354.000000)">
                <rect id="Rectangle" fill="#F16718" x="0" y="0" width="65" height="65" rx="16"></rect>
                <path d="M35.6734375,39.755125 L37.9265,42.693875 L27.5101875,42.693875 L29.76325,39.755125 L35.6734375,39.755125 Z M43.1836875,22.449 C44.2656875,22.449 45.142875,23.326125 45.142875,24.4081875 L45.142875,24.4081875 L45.142875,36.4898125 C45.142875,37.5718125 44.2656875,38.449 43.1836875,38.449 L43.1836875,38.449 L21.9591875,38.449 C20.8771875,38.449 20,37.5718125 20,36.4898125 L20,36.4898125 L20,24.4081875 C20,23.326125 20.8771875,22.449 21.9591875,22.449 L21.9591875,22.449 Z" id="Combined-Shape" fill="#FFFFFF" fill-rule="nonzero"></path>
            </g>
        </g>
    </g>
</svg>