<?xml version="1.0" encoding="UTF-8"?>
<svg width="65px" height="65px" viewBox="0 0 65 65" version="1.1" xmlns="http://www.w3.org/2000/svg" xmlns:xlink="http://www.w3.org/1999/xlink">
    <title>Group 7</title>
    <g id="Designs" stroke="none" stroke-width="1" fill="none" fill-rule="evenodd">
        <g id="Desktop" transform="translate(-450.000000, -1354.000000)">
            <g id="Group-7" transform="translate(450.000000, 1354.000000)">
                <rect id="Rectangle" fill="#F16718" x="0" y="0" width="65" height="65" rx="16"></rect>
                <path d="M34.9471304,32.9306087 L40.9214783,26.9313043 C41.2696522,26.5825217 41.4425217,26.0949565 41.3950435,25.6043478 C41.3463478,25.1131304 41.0797391,24.6693913 40.671913,24.3942609 L33.0747826,19.2818261 C32.5677391,18.9397391 31.9085217,18.9068696 31.3698261,19.1935652 C30.8305217,19.4808696 30.4829565,20.042087 30.4829565,20.652 L30.4829565,28.5936522 L26.5331304,24.6006087 C25.8903478,23.9529565 24.8543478,23.9486957 24.2066957,24.5902609 C23.5590435,25.2330435 23.5541739,26.2793913 24.1969565,26.9270435 L30.15,32.9293913 L24.1969565,38.9311304 C23.5541739,39.5781739 23.5590435,40.6245217 24.2066957,41.2685217 C24.8543478,41.9106957 25.8909565,41.9070435 26.5331304,41.2581739 L30.4829565,37.2651304 L30.4829565,45.2061739 C30.4829565,45.8166957 30.8305217,46.377913 31.3698261,46.6646087 C31.9085217,46.951913 32.5677391,46.9184348 33.0747826,46.5757391 L40.6713043,41.4651304 C41.0803478,41.1893913 41.3463478,40.7450435 41.3944348,40.2550435 C41.441913,39.7638261 41.2690435,39.2774783 40.9208696,38.9274783 L34.9471304,32.9306087 Z M33.8356522,23.7569565 L37.1938261,26.0170435 L33.8356522,29.3886087 L33.8356522,23.7569565 Z M33.8356522,42.1048696 L33.8356522,36.4732174 L37.1938261,39.8447826 L33.8356522,42.1048696 Z" id="Shape" fill="#FFFFFF" fill-rule="nonzero"></path>
            </g>
        </g>
    </g>
</svg>