<?xml version="1.0" encoding="UTF-8"?>
<svg width="65px" height="65px" viewBox="0 0 65 65" version="1.1" xmlns="http://www.w3.org/2000/svg" xmlns:xlink="http://www.w3.org/1999/xlink">
    <title>Group 5</title>
    <g id="Designs" stroke="none" stroke-width="1" fill="none" fill-rule="evenodd">
        <g id="Desktop" transform="translate(-735.000000, -1354.000000)">
            <g id="Group-5" transform="translate(735.000000, 1354.000000)">
                <rect id="Rectangle" fill="#F16718" x="0" y="0" width="65" height="65" rx="16"></rect>
                <path d="M45.6546667,27.3333333 L45.3333333,27.3333333 L45.3333333,27 C45.3333333,24.9773333 43.688,23.3333333 41.6666667,23.3333333 L19.6666667,23.3333333 C17.6453333,23.3333333 16,24.9773333 16,27 L16,39.6666667 C16,41.6893333 17.6453333,43.3333333 19.6666667,43.3333333 L41.6666667,43.3333333 C43.688,43.3333333 45.3333333,41.6893333 45.3333333,39.6666667 L45.3333333,39.3333333 L45.6546667,39.3333333 C46.9413333,39.3333333 47.988,38.2866667 47.988,37 L47.988,29.6666667 C47.988,28.38 46.9413333,27.3333333 45.6546667,27.3333333 Z M25.3333333,38.3333333 C25.3333333,38.8853333 24.8853333,39.3333333 24.3333333,39.3333333 L21,39.3333333 C20.448,39.3333333 20,38.8853333 20,38.3333333 L20,28.3333333 C20,27.7813333 20.448,27.3333333 21,27.3333333 L24.3333333,27.3333333 C24.8853333,27.3333333 25.3333333,27.7813333 25.3333333,28.3333333 L25.3333333,38.3333333 Z M33.3333333,38.3333333 C33.3333333,38.8853333 32.8853333,39.3333333 32.3333333,39.3333333 L29,39.3333333 C28.448,39.3333333 28,38.8853333 28,38.3333333 L28,28.3333333 C28,27.7813333 28.448,27.3333333 29,27.3333333 L32.3333333,27.3333333 C32.8853333,27.3333333 33.3333333,27.7813333 33.3333333,28.3333333 L33.3333333,38.3333333 Z M41.3333333,38.3333333 C41.3333333,38.8853333 40.8853333,39.3333333 40.3333333,39.3333333 L37,39.3333333 C36.448,39.3333333 36,38.8853333 36,38.3333333 L36,28.3333333 C36,27.7813333 36.448,27.3333333 37,27.3333333 L40.3333333,27.3333333 C40.8853333,27.3333333 41.3333333,27.7813333 41.3333333,28.3333333 L41.3333333,38.3333333 Z" id="Shape" fill="#FFFFFF" fill-rule="nonzero"></path>
            </g>
        </g>
    </g>
</svg>