<?xml version="1.0" encoding="UTF-8"?>
<svg width="65px" height="65px" viewBox="0 0 65 65" version="1.1" xmlns="http://www.w3.org/2000/svg" xmlns:xlink="http://www.w3.org/1999/xlink">
    <title>Group</title>
    <g id="Designs" stroke="none" stroke-width="1" fill="none" fill-rule="evenodd">
        <g id="Desktop" transform="translate(-1020.000000, -1354.000000)">
            <g id="Group" transform="translate(1020.000000, 1354.000000)">
                <rect id="Rectangle" fill="#F16718" x="0" y="0" width="65" height="65" rx="16"></rect>
                <path d="M36,44 L36,45.6666667 C36,46.9466667 34.9466667,48 33.6666667,48 L30.3333333,48 C29.2133333,48 28,47.1466667 28,45.28 L28,44 L36,44 Z M41.4693333,40.0533333 L43.3146667,41.8986667 C43.7053333,42.2893333 43.7053333,42.9226667 43.3146667,43.3133333 C43.1186667,43.5093333 42.8626667,43.6066667 42.6066667,43.6066667 C42.3506667,43.6066667 42.0946667,43.5093333 41.9,43.3133333 L40.0546667,41.468 C39.664,41.0773333 39.664,40.444 40.0546667,40.0533333 C40.4453333,39.6626667 41.0786667,39.6626667 41.4693333,40.0533333 Z M23.9466667,40.0533333 C24.3373333,40.444 24.3373333,41.0773333 23.9466667,41.468 L22.1013333,43.3133333 C21.9053333,43.5093333 21.6493333,43.6066667 21.3933333,43.6066667 C21.1373333,43.6066667 20.8813333,43.5093333 20.6866667,43.3133333 C20.296,42.9226667 20.296,42.2893333 20.6866667,41.8986667 L22.532,40.0533333 C22.9226667,39.6626667 23.556,39.6626667 23.9466667,40.0533333 Z M30,22.88 C32.8133333,22.28 35.6933333,22.9733333 37.88,24.7466667 C40.08,26.5333333 41.3333333,29.1733333 41.3333333,32 C41.3333333,34.88 40.0266667,37.5466667 37.7733333,39.3333333 C36.8533333,40.0533333 36.2533333,40.9866667 36.0666667,42 L36.0666667,42 L36.0666667,42.0133333 C36.04,42 36.0266667,42 36,42 L36,42 L28,42 L28,42 L27.9533333,42.0016667 L27.9533333,42.0016667 L27.9066667,42.0133333 L27.9066667,42 C27.72,40.9466667 27.1733333,40.04 26.3866667,39.4533333 C23.48,37.2533333 22.12,33.6533333 22.8666667,30.0266667 C23.6,26.4933333 26.4666667,23.6133333 30,22.88 Z M47,31 C47.552,31 48,31.448 48,32 C48,32.552 47.552,33 47,33 L44.3906667,33 C43.8386667,33 43.3906667,32.552 43.3906667,32 C43.3906667,31.448 43.8386667,31 44.3906667,31 L47,31 Z M19.6093333,31 C20.1613333,31 20.6093333,31.448 20.6093333,32 C20.6093333,32.552 20.1613333,33 19.6093333,33 L17,33 C16.448,33 16,32.552 16,32 C16,31.448 16.448,31 17,31 L19.6093333,31 Z M32.3333333,26 C31.7866667,26 31.3333333,26.4533333 31.3333333,27 C31.3333333,27.5466667 31.7866667,28 32.3333333,28 C34.36,28 36,29.64 36,31.6666667 C36,32.2133333 36.4533333,32.6666667 37,32.6666667 C37.5466667,32.6666667 38,32.2133333 38,31.6666667 C38,28.5466667 35.4533333,26 32.3333333,26 Z M43.3146667,20.6853333 C43.7053333,21.076 43.7053333,21.7093333 43.3146667,22.1 L41.4693333,23.9453333 C41.2733333,24.14 41.0173333,24.2386667 40.7613333,24.2386667 C40.5053333,24.2386667 40.2493333,24.1413333 40.0546667,23.9453333 C39.664,23.5546667 39.664,22.9213333 40.0546667,22.5306667 L41.9,20.6853333 C42.2906667,20.2946667 42.924,20.2946667 43.3146667,20.6853333 Z M22.1013333,20.6853333 L23.9466667,22.5306667 C24.3373333,22.9213333 24.3373333,23.5546667 23.9466667,23.9453333 C23.7493333,24.14 23.4946667,24.2386667 23.2386667,24.2386667 C22.9826667,24.2386667 22.7266667,24.1413333 22.532,23.9453333 L20.6866667,22.1 C20.296,21.7093333 20.296,21.076 20.6866667,20.6853333 C21.0773333,20.2946667 21.7106667,20.2946667 22.1013333,20.6853333 Z M32,16 C32.552,16 33,16.448 33,17 L33,19.6093333 C33,20.1613333 32.552,20.6093333 32,20.6093333 C31.448,20.6093333 31,20.1613333 31,19.6093333 L31,17 C31,16.448 31.448,16 32,16 Z" id="Combined-Shape" fill="#FFFFFF" fill-rule="nonzero"></path>
            </g>
        </g>
    </g>
</svg>